<svg width="184" height="164" viewBox="0 0 184 164" fill="none" xmlns="http://www.w3.org/2000/svg">
<path fill-rule="evenodd" clip-rule="evenodd" d="M13.8704 0L11.4012 6.76343H45.6179L48.087 0H13.8704ZM10.1659 10.1436L7.69677 16.9055H41.9134L44.3825 10.1436H10.1659ZM6.46913 20.2872L4 27.0491H38.2166L40.6842 20.2872H6.46913Z" fill="#009FDF"/>
<mask id="mask0_18_513" style="mask-type:alpha" maskUnits="userSpaceOnUse" x="55" y="10" width="94" height="42">
<path d="M55.3359 51.7042H149V10.2739H55.3359V51.7042Z" fill="white"/>
</mask>
<g mask="url(#mask0_18_513)">
<path fill-rule="evenodd" clip-rule="evenodd" d="M76.7425 29.6268V29.7695C78.3062 30.3434 79.7999 31.3471 80.5825 31.9916C83.0004 33.9989 84.0678 36.6506 84.0678 40.0912C84.0678 45.7555 81.0804 49.8406 76.173 51.1312C74.6793 51.5609 73.1156 51.7051 70.1982 51.7051H55.3359V10.2739H68.4929C71.1956 10.2739 73.044 10.4166 74.6793 10.8463C79.4451 12.1369 82.5741 15.4348 82.5741 20.6662C82.5741 23.4623 81.5783 25.8287 79.943 27.4047C79.232 28.1213 78.2362 28.9823 76.7425 29.6268ZM63.5855 33.9989V44.8945H69.2755C70.9809 44.8945 72.5461 44.7518 73.6851 43.6761C74.8225 42.6003 75.3204 41.2391 75.3204 39.4467C75.3204 38.0855 74.964 36.7949 74.253 35.8634C73.044 34.358 71.5503 33.9989 68.9908 33.9989H63.5855ZM63.5139 26.8307H68.1366C69.5587 26.8307 70.2698 26.8307 70.9809 26.6159C72.9024 26.0419 74.1114 24.3232 74.1114 21.9568C74.1114 19.1623 72.8309 17.9423 70.9809 17.3699C70.1982 17.1551 69.4171 17.0829 67.8519 17.0829H63.5139V26.8307ZM96.4422 51.7051V17.2256H84.5657V10.2739H117.566L115.219 17.2256H104.692V51.7051H96.4422ZM120.125 51.7051V10.2739H146.867L144.521 17.2256H128.305V26.401H134.919C140.253 26.401 143.027 27.6917 144.947 29.3398C146.441 30.6304 149 33.497 149 39.1613C149 44.7518 146.369 47.8333 144.164 49.4109C141.605 51.2017 138.902 51.7051 133.425 51.7051H120.125ZM128.305 44.7518H134.493C136.839 44.7518 138.261 44.1779 139.257 42.8873C139.755 42.2428 140.466 41.0948 140.466 38.9449C140.466 36.7949 139.755 35.2895 138.333 34.2137C137.48 33.5692 136.341 33.2116 134.421 33.2116H128.305V44.7518Z" fill="#0A2973"/>
</g>
<path d="M54.79 123.96C56.0167 123.96 56.9833 124.093 57.69 124.36C58.41 124.613 58.9167 125.04 59.21 125.64C59.5167 126.24 59.67 127.053 59.67 128.08C59.67 129.253 59.49 130.133 59.13 130.72C58.77 131.307 58.2233 131.7 57.49 131.9C56.77 132.087 55.8567 132.18 54.75 132.18C53.8433 132.18 53.01 132.167 52.25 132.14C51.49 132.113 50.6967 132.067 49.87 132H49.81V118.2C50.5833 118.16 51.3433 118.127 52.09 118.1C52.85 118.073 53.5967 118.06 54.33 118.06C55.1033 118.06 55.8633 118.073 56.61 118.1C57.37 118.127 58.1233 118.16 58.87 118.2L58.65 120.14H52.31V123.96H54.79ZM54.79 125.7H52.31V130.22C53.03 130.22 53.8567 130.22 54.79 130.22C55.43 130.22 55.9167 130.16 56.25 130.04C56.5967 129.92 56.83 129.7 56.95 129.38C57.0833 129.06 57.15 128.593 57.15 127.98C57.15 127.407 57.09 126.953 56.97 126.62C56.85 126.287 56.6167 126.053 56.27 125.92C55.9367 125.773 55.4433 125.7 54.79 125.7ZM66.8556 121.94C68.029 121.94 68.9223 122.187 69.5356 122.68C70.1623 123.16 70.4756 124.047 70.4756 125.34V132H68.5556L68.2956 130.4C68.0556 130.68 67.749 130.96 67.3756 131.24C67.0023 131.507 66.569 131.733 66.0756 131.92C65.5956 132.107 65.0556 132.2 64.4556 132.2C63.5623 132.2 62.829 131.967 62.2556 131.5C61.6823 131.033 61.3956 130.353 61.3956 129.46V128.42C61.3956 127.647 61.649 127.047 62.1556 126.62C62.6623 126.18 63.369 125.96 64.2756 125.96H68.0556V125.32C68.0423 124.8 67.9156 124.427 67.6756 124.2C67.4356 123.96 66.9823 123.84 66.3156 123.84C65.7956 123.84 65.149 123.86 64.3756 123.9C63.6156 123.94 62.849 123.993 62.0756 124.06L61.8556 122.4C62.3223 122.32 62.849 122.247 63.4356 122.18C64.0223 122.1 64.6156 122.04 65.2156 122C65.8156 121.96 66.3623 121.94 66.8556 121.94ZM63.7956 129.14C63.7956 129.94 64.2356 130.347 65.1156 130.36C65.5423 130.36 66.0156 130.26 66.5356 130.06C67.069 129.86 67.5756 129.567 68.0556 129.18V127.46H64.9356C64.5223 127.473 64.229 127.58 64.0556 127.78C63.8823 127.98 63.7956 128.253 63.7956 128.6V129.14ZM75.5847 122.18V125.96H79.9447V122.18H82.3247V132H79.9447V127.66H75.5847V132H73.1847V122.18H75.5847ZM87.4992 122.18V124.88C87.4992 125.28 87.4592 125.673 87.3792 126.06H88.4192C88.9926 126.06 89.4459 125.933 89.7792 125.68C90.1126 125.427 90.3992 125.02 90.6392 124.46C90.8792 123.887 91.1526 123.127 91.4592 122.18H93.9392C93.6459 123.033 93.3859 123.747 93.1592 124.32C92.9459 124.88 92.7192 125.34 92.4792 125.7C92.2526 126.047 91.9659 126.313 91.6192 126.5C91.2859 126.673 90.8526 126.793 90.3192 126.86V126.94C90.8792 126.993 91.3392 127.113 91.6992 127.3C92.0592 127.473 92.3659 127.747 92.6192 128.12C92.8859 128.48 93.1392 128.973 93.3792 129.6C93.6192 130.227 93.9059 131.027 94.2392 132H91.6992C91.4059 131.133 91.1526 130.427 90.9392 129.88C90.7259 129.32 90.5126 128.887 90.2992 128.58C90.0859 128.273 89.8326 128.06 89.5392 127.94C89.2459 127.82 88.8792 127.76 88.4392 127.76H87.3992C87.4659 128.093 87.4992 128.393 87.4992 128.66V132H85.0792V122.18H87.4992ZM105.608 118.04C106.782 118.04 107.715 118.147 108.408 118.36C109.115 118.56 109.622 118.92 109.928 119.44C110.235 119.96 110.388 120.693 110.388 121.64C110.388 122.627 110.202 123.38 109.828 123.9C109.455 124.42 108.848 124.72 108.008 124.8V124.88C109.048 124.973 109.775 125.333 110.188 125.96C110.615 126.587 110.828 127.453 110.828 128.56C110.828 129.507 110.668 130.24 110.348 130.76C110.042 131.28 109.548 131.647 108.868 131.86C108.202 132.06 107.328 132.16 106.248 132.16C105.408 132.16 104.675 132.153 104.048 132.14C103.435 132.14 102.862 132.127 102.328 132.1C101.808 132.073 101.268 132.04 100.708 132V118.2C101.202 118.147 101.682 118.113 102.148 118.1C102.628 118.073 103.142 118.06 103.688 118.06C104.235 118.047 104.875 118.04 105.608 118.04ZM105.488 119.96C105.035 119.96 104.615 119.96 104.228 119.96C103.842 119.96 103.482 119.96 103.148 119.96V124H105.708C106.562 124 107.155 123.867 107.488 123.6C107.822 123.32 107.988 122.773 107.988 121.96C107.988 121.413 107.908 121 107.748 120.72C107.602 120.427 107.342 120.227 106.968 120.12C106.608 120.013 106.115 119.96 105.488 119.96ZM105.728 125.7H103.148V130.24C103.922 130.24 104.815 130.24 105.828 130.24C106.455 130.24 106.948 130.187 107.308 130.08C107.668 129.96 107.922 129.747 108.068 129.44C108.228 129.133 108.308 128.687 108.308 128.1C108.308 127.46 108.228 126.973 108.068 126.64C107.908 126.293 107.642 126.053 107.268 125.92C106.895 125.773 106.382 125.7 105.728 125.7ZM123.089 118.2V120.24H118.809V132H116.309V120.24H112.029V118.2H123.089ZM130.024 123.96C131.251 123.96 132.218 124.093 132.924 124.36C133.644 124.613 134.151 125.04 134.444 125.64C134.751 126.24 134.904 127.053 134.904 128.08C134.904 129.253 134.724 130.133 134.364 130.72C134.004 131.307 133.458 131.7 132.724 131.9C132.004 132.087 131.091 132.18 129.984 132.18C129.078 132.18 128.244 132.167 127.484 132.14C126.724 132.113 125.931 132.067 125.104 132H125.044V118.2C125.818 118.16 126.578 118.127 127.324 118.1C128.084 118.073 128.831 118.06 129.564 118.06C130.338 118.06 131.098 118.073 131.844 118.1C132.604 118.127 133.358 118.16 134.104 118.2L133.884 120.14H127.544V123.96H130.024ZM130.024 125.7H127.544V130.22C128.264 130.22 129.091 130.22 130.024 130.22C130.664 130.22 131.151 130.16 131.484 130.04C131.831 129.92 132.064 129.7 132.184 129.38C132.318 129.06 132.384 128.593 132.384 127.98C132.384 127.407 132.324 126.953 132.204 126.62C132.084 126.287 131.851 126.053 131.504 125.92C131.171 125.773 130.678 125.7 130.024 125.7Z" fill="#363738"/>
<path d="M31.9416 156.464H31.2836V161H30.1216V151.2H31.2836V155.764L31.9136 155.568L35.2036 151.2H36.5476L33.2716 155.414L32.6836 155.876L33.3976 156.436L36.9816 161H35.5116L31.9416 156.464ZM37.2465 157.5C37.2465 156.315 37.5079 155.409 38.0305 154.784C38.5625 154.149 39.3232 153.832 40.3125 153.832C40.8352 153.832 41.2879 153.921 41.6705 154.098C42.0625 154.266 42.3845 154.513 42.6365 154.84C42.8885 155.157 43.0752 155.545 43.1965 156.002C43.3179 156.45 43.3785 156.949 43.3785 157.5C43.3785 158.685 43.1125 159.595 42.5805 160.23C42.0579 160.855 41.3019 161.168 40.3125 161.168C39.7899 161.168 39.3325 161.084 38.9405 160.916C38.5579 160.739 38.2405 160.491 37.9885 160.174C37.7365 159.847 37.5499 159.46 37.4285 159.012C37.3072 158.555 37.2465 158.051 37.2465 157.5ZM38.4085 157.5C38.4085 157.855 38.4412 158.195 38.5065 158.522C38.5812 158.849 38.6932 159.133 38.8425 159.376C38.9919 159.619 39.1879 159.815 39.4305 159.964C39.6732 160.113 39.9672 160.188 40.3125 160.188C41.5819 160.197 42.2165 159.301 42.2165 157.5C42.2165 157.136 42.1792 156.791 42.1045 156.464C42.0392 156.137 41.9319 155.853 41.7825 155.61C41.6332 155.367 41.4372 155.176 41.1945 155.036C40.9519 154.887 40.6579 154.812 40.3125 154.812C39.0432 154.803 38.4085 155.699 38.4085 157.5ZM50.9264 156.842L51.0104 155.512H50.9404L50.4364 156.59L48.7424 159.334H48.3504L46.5864 156.59L46.1244 155.512H46.0684L46.1804 156.828V161H45.1444V154H46.2504L48.2104 157.136L48.6164 157.948H48.6444L49.0644 157.108L50.8984 154H52.0184V161H50.9264V156.842ZM59.9498 156.842L60.0338 155.512H59.9638L59.4598 156.59L57.7658 159.334H57.3738L55.6098 156.59L55.1478 155.512H55.0918L55.2038 156.828V161H54.1678V154H55.2738L57.2338 157.136L57.6398 157.948H57.6678L58.0878 157.108L59.9218 154H61.0418V161H59.9498V156.842ZM68.3013 160.44C68.0213 160.664 67.6666 160.841 67.2373 160.972C66.8173 161.103 66.3693 161.168 65.8933 161.168C65.3613 161.168 64.8993 161.084 64.5073 160.916C64.1153 160.739 63.7933 160.491 63.5413 160.174C63.2893 159.847 63.1026 159.46 62.9813 159.012C62.8599 158.564 62.7993 158.06 62.7993 157.5C62.7993 156.305 63.0653 155.395 63.5973 154.77C64.1293 154.145 64.8899 153.832 65.8793 153.832C66.1966 153.832 66.5139 153.869 66.8313 153.944C67.1486 154.009 67.4333 154.14 67.6853 154.336C67.9373 154.532 68.1426 154.812 68.3013 155.176C68.4599 155.531 68.5393 156.002 68.5393 156.59C68.5393 156.898 68.5113 157.239 68.4553 157.612H63.9613C63.9613 158.023 64.0033 158.387 64.0873 158.704C64.1713 159.021 64.3019 159.292 64.4793 159.516C64.6566 159.731 64.8853 159.899 65.1653 160.02C65.4546 160.132 65.8046 160.188 66.2153 160.188C66.5326 160.188 66.8499 160.132 67.1673 160.02C67.4846 159.908 67.7226 159.777 67.8813 159.628L68.3013 160.44ZM65.8933 154.812C65.3426 154.812 64.8993 154.957 64.5633 155.246C64.2366 155.535 64.0406 156.03 63.9753 156.73H67.4473C67.4473 156.021 67.3119 155.526 67.0413 155.246C66.7706 154.957 66.3879 154.812 65.8933 154.812ZM70.3007 154H71.0707L71.2807 154.84H71.3367C71.5513 154.513 71.8267 154.266 72.1627 154.098C72.508 153.921 72.9 153.832 73.3387 153.832C74.272 153.832 74.9673 154.107 75.4247 154.658C75.882 155.209 76.1107 156.109 76.1107 157.36C76.1107 157.948 76.0313 158.48 75.8727 158.956C75.7233 159.423 75.5087 159.819 75.2287 160.146C74.9487 160.473 74.608 160.725 74.2067 160.902C73.8147 161.079 73.376 161.168 72.8907 161.168C72.5453 161.168 72.27 161.145 72.0647 161.098C71.8687 161.061 71.654 160.991 71.4207 160.888V163.8H70.3007V154ZM73.1287 154.812C72.6527 154.812 72.2747 154.938 71.9947 155.19C71.724 155.433 71.5327 155.806 71.4207 156.31V159.782C71.5887 159.913 71.78 160.015 71.9947 160.09C72.2093 160.155 72.494 160.188 72.8487 160.188C73.4927 160.188 74.0013 159.95 74.3747 159.474C74.7573 158.989 74.9487 158.279 74.9487 157.346C74.9487 156.963 74.916 156.618 74.8507 156.31C74.7853 155.993 74.678 155.727 74.5287 155.512C74.3887 155.288 74.202 155.115 73.9687 154.994C73.7447 154.873 73.4647 154.812 73.1287 154.812ZM78.6029 154V155.904C78.6029 156.156 78.6169 156.385 78.6449 156.59C78.6729 156.786 78.7289 156.959 78.8129 157.108C78.8969 157.248 79.0182 157.36 79.1769 157.444C79.3355 157.519 79.5455 157.556 79.8069 157.556C80.2269 157.556 80.5722 157.509 80.8429 157.416C81.1135 157.323 81.3189 157.22 81.4589 157.108V154H82.5789V161H81.4589V158.06C81.3095 158.153 81.0855 158.256 80.7869 158.368C80.4975 158.48 80.0962 158.536 79.5829 158.536C79.2375 158.536 78.9342 158.499 78.6729 158.424C78.4115 158.349 78.1922 158.219 78.0149 158.032C77.8375 157.845 77.7022 157.598 77.6089 157.29C77.5249 156.982 77.4829 156.595 77.4829 156.128V154H78.6029ZM89.8482 160.44C89.5682 160.664 89.2135 160.841 88.7842 160.972C88.3642 161.103 87.9162 161.168 87.4402 161.168C86.9082 161.168 86.4462 161.084 86.0542 160.916C85.6622 160.739 85.3402 160.491 85.0882 160.174C84.8362 159.847 84.6495 159.46 84.5282 159.012C84.4068 158.564 84.3462 158.06 84.3462 157.5C84.3462 156.305 84.6122 155.395 85.1442 154.77C85.6762 154.145 86.4368 153.832 87.4262 153.832C87.7435 153.832 88.0608 153.869 88.3782 153.944C88.6955 154.009 88.9802 154.14 89.2322 154.336C89.4842 154.532 89.6895 154.812 89.8482 155.176C90.0068 155.531 90.0862 156.002 90.0862 156.59C90.0862 156.898 90.0582 157.239 90.0022 157.612H85.5082C85.5082 158.023 85.5502 158.387 85.6342 158.704C85.7182 159.021 85.8488 159.292 86.0262 159.516C86.2035 159.731 86.4322 159.899 86.7122 160.02C87.0015 160.132 87.3515 160.188 87.7622 160.188C88.0795 160.188 88.3968 160.132 88.7142 160.02C89.0315 159.908 89.2695 159.777 89.4282 159.628L89.8482 160.44ZM87.4402 154.812C86.8895 154.812 86.4462 154.957 86.1102 155.246C85.7835 155.535 85.5875 156.03 85.5222 156.73H88.9942C88.9942 156.021 88.8588 155.526 88.5882 155.246C88.3175 154.957 87.9348 154.812 87.4402 154.812ZM96.4711 160.538C96.1911 160.743 95.8598 160.897 95.4771 161C95.0945 161.112 94.6931 161.168 94.2731 161.168C93.7318 161.168 93.2745 161.084 92.9011 160.916C92.5278 160.739 92.2198 160.491 91.9771 160.174C91.7438 159.847 91.5711 159.46 91.4591 159.012C91.3565 158.555 91.3051 158.051 91.3051 157.5C91.3051 156.315 91.5665 155.409 92.0891 154.784C92.6118 154.149 93.3631 153.832 94.3431 153.832C94.7911 153.832 95.1691 153.869 95.4771 153.944C95.7945 154.009 96.0791 154.107 96.3311 154.238L96.0091 155.204C95.7945 155.083 95.5565 154.989 95.2951 154.924C95.0338 154.849 94.7538 154.812 94.4551 154.812C93.1298 154.812 92.4671 155.708 92.4671 157.5C92.4671 157.855 92.4998 158.195 92.5651 158.522C92.6398 158.839 92.7565 159.124 92.9151 159.376C93.0831 159.619 93.2978 159.815 93.5591 159.964C93.8298 160.113 94.1611 160.188 94.5531 160.188C94.8891 160.188 95.1878 160.137 95.4491 160.034C95.7198 159.931 95.9391 159.815 96.1071 159.684L96.4711 160.538ZM99.7775 157.85H99.1335V161H98.0135V154H99.1335V157.164L99.7355 156.968L101.976 154H103.194L101.024 156.814L100.436 157.276L101.164 157.836L103.502 161H102.116L99.7775 157.85ZM109.067 156.856L109.109 155.988H109.067L108.493 156.884L105.343 161H104.699V154H105.819V158.27L105.777 159.096H105.833L106.379 158.228L109.529 154H110.187V161H109.067V156.856ZM116.71 156.856L116.752 155.988H116.71L116.136 156.884L112.986 161H112.342V154H113.462V158.27L113.42 159.096H113.476L114.022 158.228L117.172 154H117.83V161H116.71V156.856ZM113.952 151.172C114.045 151.601 114.204 151.9 114.428 152.068C114.661 152.236 114.927 152.32 115.226 152.32C115.524 152.32 115.79 152.231 116.024 152.054C116.257 151.877 116.416 151.587 116.5 151.186L117.34 151.452C117.256 151.993 117.013 152.409 116.612 152.698C116.22 152.987 115.748 153.132 115.198 153.132C114.946 153.132 114.694 153.099 114.442 153.034C114.199 152.969 113.98 152.871 113.784 152.74C113.588 152.609 113.42 152.441 113.28 152.236C113.14 152.031 113.046 151.788 113 151.508L113.952 151.172ZM124.361 155.246C124.669 154.798 125.009 154.485 125.383 154.308C125.756 154.121 126.223 154.028 126.783 154.028C127.641 154.028 128.299 154.308 128.757 154.868C129.223 155.428 129.457 156.254 129.457 157.346C129.457 158.606 129.186 159.558 128.645 160.202C128.113 160.846 127.366 161.168 126.405 161.168C125.378 161.168 124.608 160.813 124.095 160.104C123.581 159.395 123.325 158.279 123.325 156.758C123.325 155.955 123.362 155.269 123.437 154.7C123.521 154.131 123.637 153.65 123.787 153.258C123.945 152.866 124.132 152.553 124.347 152.32C124.571 152.087 124.818 151.905 125.089 151.774C125.369 151.634 125.672 151.536 125.999 151.48C126.325 151.424 126.675 151.377 127.049 151.34C127.534 151.293 127.912 151.242 128.183 151.186C128.463 151.121 128.687 151.009 128.855 150.85L128.981 151.858C128.887 151.942 128.785 152.012 128.673 152.068C128.561 152.124 128.425 152.171 128.267 152.208C128.108 152.245 127.917 152.278 127.693 152.306C127.478 152.334 127.226 152.357 126.937 152.376C126.535 152.404 126.181 152.455 125.873 152.53C125.574 152.595 125.313 152.731 125.089 152.936C124.874 153.132 124.701 153.417 124.571 153.79C124.449 154.154 124.365 154.639 124.319 155.246H124.361ZM124.487 157.514C124.487 157.869 124.524 158.209 124.599 158.536C124.673 158.863 124.785 159.152 124.935 159.404C125.093 159.647 125.294 159.838 125.537 159.978C125.779 160.118 126.064 160.188 126.391 160.188C127.035 160.188 127.511 159.959 127.819 159.502C128.136 159.035 128.295 158.349 128.295 157.444C128.295 157.089 128.262 156.763 128.197 156.464C128.131 156.165 128.029 155.909 127.889 155.694C127.749 155.47 127.571 155.302 127.357 155.19C127.142 155.069 126.885 155.008 126.587 155.008C125.859 154.999 125.327 155.213 124.991 155.652C124.655 156.081 124.487 156.702 124.487 157.514ZM131.111 154.518C131.465 154.303 131.876 154.145 132.343 154.042C132.819 153.939 133.313 153.888 133.827 153.888C134.312 153.888 134.699 153.953 134.989 154.084C135.287 154.215 135.511 154.387 135.661 154.602C135.819 154.807 135.922 155.036 135.969 155.288C136.025 155.54 136.053 155.792 136.053 156.044C136.053 156.604 136.039 157.15 136.011 157.682C135.983 158.214 135.969 158.718 135.969 159.194C135.969 159.539 135.983 159.866 136.011 160.174C136.039 160.482 136.09 160.767 136.165 161.028H135.339L135.045 160.048H134.975C134.891 160.179 134.783 160.309 134.653 160.44C134.531 160.561 134.382 160.673 134.205 160.776C134.027 160.869 133.822 160.949 133.589 161.014C133.355 161.079 133.089 161.112 132.791 161.112C132.492 161.112 132.212 161.065 131.951 160.972C131.699 160.879 131.479 160.748 131.293 160.58C131.106 160.403 130.957 160.193 130.845 159.95C130.742 159.707 130.691 159.432 130.691 159.124C130.691 158.713 130.775 158.373 130.943 158.102C131.111 157.822 131.344 157.603 131.643 157.444C131.951 157.276 132.315 157.159 132.735 157.094C133.164 157.019 133.635 156.982 134.149 156.982C134.279 156.982 134.405 156.982 134.527 156.982C134.657 156.982 134.788 156.991 134.919 157.01C134.947 156.73 134.961 156.478 134.961 156.254C134.961 155.741 134.858 155.381 134.653 155.176C134.447 154.971 134.074 154.868 133.533 154.868C133.374 154.868 133.201 154.882 133.015 154.91C132.837 154.929 132.651 154.961 132.455 155.008C132.268 155.045 132.086 155.097 131.909 155.162C131.741 155.218 131.591 155.283 131.461 155.358L131.111 154.518ZM133.099 160.132C133.36 160.132 133.593 160.099 133.799 160.034C134.004 159.959 134.181 159.871 134.331 159.768C134.48 159.656 134.601 159.535 134.695 159.404C134.797 159.273 134.872 159.147 134.919 159.026V157.864C134.788 157.855 134.653 157.85 134.513 157.85C134.382 157.841 134.251 157.836 134.121 157.836C133.831 157.836 133.547 157.855 133.267 157.892C132.996 157.92 132.753 157.981 132.539 158.074C132.333 158.158 132.165 158.279 132.035 158.438C131.913 158.587 131.853 158.779 131.853 159.012C131.853 159.339 131.969 159.609 132.203 159.824C132.436 160.029 132.735 160.132 133.099 160.132ZM142.452 157.906H139.288V161H138.168V154H139.288V156.926H142.452V154H143.572V161H142.452V157.906ZM147.492 157.85H146.848V161H145.728V154H146.848V157.164L147.45 156.968L149.69 154H150.908L148.738 156.814L148.15 157.276L148.878 157.836L151.216 161H149.83L147.492 157.85Z" fill="#6B6B6C"/>
</svg>
