<svg width="184" height="160" viewBox="0 0 184 160" fill="none" xmlns="http://www.w3.org/2000/svg">
<path d="M49.0347 1.26562H1V49.2742H49.0347V1.26562Z" fill="#ED1A3A"/>
<path d="M41.277 6.04733C40.1732 6.04733 39.3372 6.77929 38.9207 7.65889L32.8725 17.6108C32.4531 18.5311 32.147 19.5652 32.147 20.2496C32.147 20.8613 32.2309 21.4016 32.4552 21.8997L38.9977 37.5209H13.5916C12.677 37.5209 11.9222 36.6028 11.9222 35.7553V8.8467C11.73 5.16807 6.43999 5.17005 6.32349 8.96227L6.43906 37.5209C6.43906 40.6258 8.84068 43.1132 11.9222 43.1132H46.5612L38.1181 21.5209C37.8851 20.717 37.7813 19.988 38.3493 19.0297L43.9351 9.95103C44.0138 9.76171 44.1278 8.96122 44.1278 8.73113C44.0171 7.08259 42.7246 5.97452 41.277 6.04733ZM27.5627 6.06017C26.204 6.06927 24.8468 7.00738 24.8468 8.8467V28.102C24.8468 30.8981 21.0844 30.668 21.0844 28.102V8.8467C21.0844 5.16807 15.6397 5.16807 15.6397 8.8467V28.2561C15.6397 32.6949 18.956 35.6461 22.9142 35.6461C26.9802 35.6461 30.285 32.6949 30.285 28.2561V8.8467C30.285 6.97098 28.9214 6.05107 27.5627 6.06017Z" fill="white"/>
<path d="M58.4451 6.90674V19.6086C58.4451 22.7834 58.1218 24.5484 55.5354 24.5484C55.0519 24.5484 54.7286 24.5484 54.2451 24.3737V29.8406C55.2121 30.196 55.8587 30.196 56.6684 30.196C63.9383 30.196 64.2616 24.7261 64.2616 21.5484V12.3766H68.4616V29.8406H74.2751V6.90674H58.4451Z" fill="black"/>
<path d="M76.2151 6.90674L84.1316 23.4911L81.2248 29.8406H87.5248L96.8946 6.90674H90.5946L87.2014 16.6086L83.1617 6.90674H76.2151Z" fill="black"/>
<path d="M98.6716 29.8406H104.488V19.9611L110.465 29.8406H117.895L109.658 18.0213L117.735 6.90674H110.788L104.488 16.6086V6.90674H98.6716V29.8406Z" fill="black"/>
<path d="M127.428 30.5477C135.181 30.5477 138.734 24.5477 138.734 18.373C138.734 12.3759 135.181 6.37598 127.428 6.37598C119.834 6.37598 116.281 12.3759 116.281 18.373C116.281 24.5477 119.834 30.5477 127.428 30.5477ZM127.428 25.0778C124.841 25.0778 122.258 22.7827 122.258 18.373C122.258 13.9633 124.841 11.8459 127.428 11.8459C130.174 11.8459 132.758 13.9633 132.758 18.373C132.758 22.7827 130.174 25.0778 127.428 25.0778Z" fill="black"/>
<path d="M141.645 6.90715V29.841H147.298L155.375 16.0819V29.841H161.031V6.90715H155.375L147.298 20.6692V6.90715H141.645ZM151.498 5.67221C153.921 5.67221 156.344 4.78969 157.477 2.14212L154.084 0.732422C153.598 2.49746 152.144 2.67222 151.498 2.67222C151.014 2.67222 149.398 2.49746 149.075 0.732422L145.684 2.14212C146.651 4.78969 149.238 5.67221 151.498 5.67221Z" fill="black"/>
<path d="M167.17 6.90674V19.6086C167.17 22.7834 166.844 24.5484 164.26 24.5484C163.777 24.5484 163.453 24.5484 162.967 24.3737V29.8406C163.937 30.196 164.584 30.196 165.39 30.196C172.66 30.196 172.983 24.7261 172.983 21.5484V12.3766H177.183V29.8406H183V6.90674H167.17Z" fill="black"/>
<path d="M54.2922 42.7113H55.1107V38.456H59.8903V42.7113H60.7087V34.3696H59.8903V37.7861H55.1107V34.3696H54.2922V42.7113Z" fill="black"/>
<path d="M62.7908 42.7113H67.2733V42.0414H63.6092V38.3745H67.1276V37.7046H63.6092V35.0424H67.2733V34.3696H62.7908V42.7113Z" fill="black"/>
<path d="M72.6678 42.7114H73.4775V41.5638H73.8183C76.5153 41.5638 77.6309 39.9677 77.6309 38.2958C77.6309 36.3386 76.1833 35.0425 73.8183 35.0425H73.4775V34.0405H72.6678V35.0425H72.3387C69.9591 35.0425 68.5144 36.3386 68.5144 38.2958C68.5144 39.9677 69.6299 41.5638 72.3387 41.5638H72.6678V42.7114ZM73.4775 35.7124C76.1833 35.7473 76.7775 37.0114 76.7775 38.2958C76.7775 40.2997 75.4464 40.8211 73.4775 40.891V35.7124ZM72.6678 40.891C70.6989 40.8211 69.3678 40.2997 69.3678 38.2958C69.3678 37.0114 69.9591 35.7473 72.6678 35.7124V40.891Z" fill="black"/>
<path d="M80.5866 42.7113H81.373V35.0424H83.5924V34.3696H78.3701V35.0424H80.5866V42.7113Z" fill="black"/>
<path d="M84.5599 42.7113H85.4803L87.6997 39.0473H88.4046V42.7113H89.2259V34.3696H87.3007C84.7754 34.3696 84.4114 36.0444 84.4114 36.7842C84.4114 38.1939 85.5153 39.0473 86.8143 39.0007L84.5599 42.7113ZM88.4046 38.3745H87.222C86.5521 38.3745 85.2211 38.2958 85.2211 36.7026C85.2211 35.156 86.6308 35.0424 87.3007 35.0424H88.4046V38.3745Z" fill="black"/>
<path d="M91.3201 42.7113H92.1385V38.456H96.9181V42.7113H97.7365V34.3696H96.9181V37.7861H92.1385V34.3696H91.3201V42.7113Z" fill="black"/>
<path d="M98.9307 42.7115H99.752L100.9 40.0028H104.415L105.566 42.7115H106.384L102.641 34.1543L98.9307 42.7115ZM101.197 39.3446L102.641 35.931L104.121 39.3446H101.197Z" fill="black"/>
<path d="M107.33 42.7113H108.251L110.47 39.0473H111.175V42.7113H111.994V34.3696H110.071C107.546 34.3696 107.182 36.0444 107.182 36.7842C107.182 38.1939 108.286 39.0473 109.582 39.0007L107.33 42.7113ZM111.175 38.3745H109.993C109.32 38.3745 107.989 38.2958 107.989 36.7026C107.989 35.156 109.401 35.0424 110.071 35.0424H111.175V38.3745Z" fill="black"/>
<path d="M116.855 42.7113H117.674V38.6716L121.416 42.7113H122.485L118.446 38.4094L122.418 34.3696H121.416L117.674 38.2609V34.3696H116.855V42.7113Z" fill="black"/>
<path d="M127.765 42.9737C130.247 42.9737 132.283 41.1882 132.283 38.5582C132.283 35.931 130.247 34.1543 127.765 34.1543C125.319 34.1543 123.283 35.931 123.283 38.5582C123.283 41.1882 125.319 42.9737 127.765 42.9737ZM127.765 42.2688C125.729 42.2688 124.136 40.7426 124.136 38.5582C124.136 36.3737 125.729 34.8155 127.765 34.8155C129.804 34.8155 131.429 36.3737 131.429 38.5582C131.429 40.7426 129.804 42.2688 127.765 42.2688Z" fill="black"/>
<path d="M133.41 42.7114H134.197L134.969 36.5541L138.041 43.0871L141.079 36.5541L141.901 42.7114H142.638L141.49 34.0405L138.041 41.4939L134.558 34.0405L133.41 42.7114Z" fill="black"/>
<path d="M144.175 34.3696V42.7113H144.993V35.0424H149.773V42.7113H150.592V34.3696H144.175Z" fill="black"/>
<path d="M151.789 42.7115H152.607L153.755 40.0028H157.273L158.421 42.7115H159.239L155.497 34.1543L151.789 42.7115ZM154.052 39.3446L155.497 35.931L156.976 39.3446H154.052Z" fill="black"/>
<path d="M160.401 42.7113H161.22V38.456H165.999V42.7113H166.821V34.3696H165.999V37.7861H161.22V34.3696H160.401V42.7113Z" fill="black"/>
<path d="M168.9 34.3697V43.0871L174.615 36.1114V42.7114H175.422V34.0405L169.722 40.9696V34.3697H168.9Z" fill="black"/>
<path d="M177.265 42.7113H178.185L180.405 39.0473H181.11V42.7113H181.931V34.3696H180.009C177.481 34.3696 177.116 36.0444 177.116 36.7842C177.116 38.1939 178.22 39.0473 179.519 39.0007L177.265 42.7113ZM181.11 38.3745H179.927C179.257 38.3745 177.926 38.2958 177.926 36.7026C177.926 35.156 179.336 35.0424 180.009 35.0424H181.11V38.3745Z" fill="black"/>
<path d="M68.507 114.2V128H65.987V116.04H63.787C62.947 116.04 62.4937 116.46 62.427 117.3C62.307 118.647 62.1937 119.8 62.087 120.76C61.9937 121.72 61.8737 122.56 61.727 123.28C61.5804 123.987 61.3804 124.627 61.127 125.2C60.727 126.253 60.1804 127.007 59.487 127.46C58.7937 127.913 57.9737 128.107 57.027 128.04L56.827 126.1C57.267 125.993 57.647 125.833 57.967 125.62C58.3004 125.393 58.5804 125.027 58.807 124.52C58.967 124.133 59.107 123.727 59.227 123.3C59.347 122.86 59.447 122.36 59.527 121.8C59.6204 121.227 59.707 120.553 59.787 119.78C59.867 119.007 59.947 118.08 60.027 117C60.187 115.133 61.187 114.2 63.027 114.2H68.507ZM72.9264 118.18L75.0864 124.94C75.2197 125.393 75.3331 125.853 75.4264 126.32H75.6664C75.7464 126.093 75.8197 125.86 75.8864 125.62C75.9531 125.367 76.0197 125.14 76.0864 124.94L78.2464 118.18H80.8264L77.1464 128.3C76.9064 129.02 76.5864 129.653 76.1864 130.2C75.7864 130.76 75.2864 131.207 74.6864 131.54C74.1664 131.86 73.5797 132.04 72.9264 132.08C72.2864 132.133 71.6197 132.107 70.9264 132L71.1264 130.38C71.6331 130.407 72.0997 130.393 72.5264 130.34C72.9531 130.287 73.3264 130.153 73.6464 129.94C73.9131 129.767 74.1531 129.52 74.3664 129.2C74.5931 128.88 74.7797 128.533 74.9264 128.16L75.0064 128H74.5064C74.0931 128 73.8197 127.8 73.6864 127.4L70.3264 118.18H72.9264ZM84.9016 118.18V120.88C84.9016 121.28 84.8616 121.673 84.7816 122.06H85.8216C86.3949 122.06 86.8482 121.933 87.1816 121.68C87.5149 121.427 87.8016 121.02 88.0416 120.46C88.2816 119.887 88.5549 119.127 88.8616 118.18H91.3416C91.0482 119.033 90.7882 119.747 90.5616 120.32C90.3482 120.88 90.1216 121.34 89.8816 121.7C89.6549 122.047 89.3682 122.313 89.0216 122.5C88.6882 122.673 88.2549 122.793 87.7216 122.86V122.94C88.2816 122.993 88.7416 123.113 89.1016 123.3C89.4616 123.473 89.7682 123.747 90.0216 124.12C90.2882 124.48 90.5416 124.973 90.7816 125.6C91.0216 126.227 91.3082 127.027 91.6416 128H89.1016C88.8082 127.133 88.5549 126.427 88.3416 125.88C88.1282 125.32 87.9149 124.887 87.7016 124.58C87.4882 124.273 87.2349 124.06 86.9416 123.94C86.6482 123.82 86.2816 123.76 85.8416 123.76H84.8016C84.8682 124.093 84.9016 124.393 84.9016 124.66V128H82.4816V118.18H84.9016ZM97.8986 117.94C99.0853 117.94 100.032 118.107 100.739 118.44C101.459 118.773 101.972 119.32 102.279 120.08C102.599 120.84 102.759 121.847 102.759 123.1C102.759 124.353 102.599 125.36 102.279 126.12C101.972 126.88 101.459 127.427 100.739 127.76C100.032 128.093 99.0853 128.26 97.8986 128.26C96.6986 128.26 95.7386 128.093 95.0186 127.76C94.3119 127.427 93.7986 126.88 93.4786 126.12C93.1586 125.36 92.9986 124.353 92.9986 123.1C92.9986 121.847 93.1586 120.84 93.4786 120.08C93.7986 119.32 94.3119 118.773 95.0186 118.44C95.7386 118.107 96.6986 117.94 97.8986 117.94ZM97.8986 119.78C97.2986 119.78 96.8253 119.88 96.4786 120.08C96.1319 120.267 95.8853 120.6 95.7386 121.08C95.6053 121.56 95.5386 122.233 95.5386 123.1C95.5386 123.967 95.6053 124.64 95.7386 125.12C95.8853 125.6 96.1319 125.933 96.4786 126.12C96.8253 126.307 97.2986 126.4 97.8986 126.4C98.4853 126.4 98.9453 126.307 99.2786 126.12C99.6253 125.933 99.8653 125.6 99.9986 125.12C100.145 124.64 100.219 123.967 100.219 123.1C100.219 122.233 100.145 121.56 99.9986 121.08C99.8653 120.6 99.6253 120.267 99.2786 120.08C98.9453 119.88 98.4853 119.78 97.8986 119.78ZM114.319 118.18V128L112.139 128.02V122.28C112.139 122.04 112.145 121.807 112.159 121.58C112.185 121.34 112.205 121.087 112.219 120.82H112.179C112.085 121.033 111.972 121.267 111.839 121.52C111.705 121.76 111.572 121.967 111.439 122.14L107.179 128H105.099V118.18H107.279V123.98C107.279 124.22 107.272 124.447 107.259 124.66C107.245 124.873 107.225 125.113 107.199 125.38H107.239C107.345 125.153 107.459 124.933 107.579 124.72C107.712 124.507 107.845 124.313 107.979 124.14L112.259 118.18H114.319ZM111.179 113.82H112.839C112.892 114.367 112.799 114.867 112.559 115.32C112.319 115.76 111.952 116.12 111.459 116.4C110.979 116.667 110.392 116.8 109.699 116.8C109.005 116.8 108.405 116.667 107.899 116.4C107.405 116.12 107.039 115.76 106.799 115.32C106.559 114.867 106.465 114.367 106.519 113.82H108.179C108.152 114.42 108.272 114.86 108.539 115.14C108.805 115.42 109.192 115.56 109.699 115.56C110.179 115.56 110.552 115.42 110.819 115.14C111.085 114.86 111.205 114.42 111.179 113.82ZM125.891 118.18V128H123.471V119.92H121.811C121.438 119.92 121.164 120.007 120.991 120.18C120.831 120.34 120.731 120.613 120.691 121C120.584 121.84 120.471 122.693 120.351 123.56C120.231 124.427 120.071 125.167 119.871 125.78C119.644 126.673 119.204 127.3 118.551 127.66C117.911 128.02 117.144 128.167 116.251 128.1L115.991 126.3C116.498 126.193 116.878 126.06 117.131 125.9C117.384 125.727 117.578 125.46 117.711 125.1C117.831 124.74 117.938 124.307 118.031 123.8C118.124 123.293 118.204 122.76 118.271 122.2C118.338 121.627 118.391 121.08 118.431 120.56C118.524 119.773 118.771 119.18 119.171 118.78C119.584 118.38 120.204 118.18 121.031 118.18H125.891Z" fill="#363738"/>
<path d="M37.5042 152.506H32.8002V157H31.6382V147.2H32.8002V151.47H37.5042V147.2H38.6662V157H37.5042V152.506ZM46.0425 156.44C45.7625 156.664 45.4078 156.841 44.9785 156.972C44.5585 157.103 44.1105 157.168 43.6345 157.168C43.1025 157.168 42.6405 157.084 42.2485 156.916C41.8565 156.739 41.5345 156.491 41.2825 156.174C41.0305 155.847 40.8438 155.46 40.7225 155.012C40.6012 154.564 40.5405 154.06 40.5405 153.5C40.5405 152.305 40.8065 151.395 41.3385 150.77C41.8705 150.145 42.6312 149.832 43.6205 149.832C43.9378 149.832 44.2552 149.869 44.5725 149.944C44.8898 150.009 45.1745 150.14 45.4265 150.336C45.6785 150.532 45.8838 150.812 46.0425 151.176C46.2012 151.531 46.2805 152.002 46.2805 152.59C46.2805 152.898 46.2525 153.239 46.1965 153.612H41.7025C41.7025 154.023 41.7445 154.387 41.8285 154.704C41.9125 155.021 42.0432 155.292 42.2205 155.516C42.3978 155.731 42.6265 155.899 42.9065 156.02C43.1958 156.132 43.5458 156.188 43.9565 156.188C44.2738 156.188 44.5912 156.132 44.9085 156.02C45.2258 155.908 45.4638 155.777 45.6225 155.628L46.0425 156.44ZM43.6345 150.812C43.0838 150.812 42.6405 150.957 42.3045 151.246C41.9778 151.535 41.7818 152.03 41.7165 152.73H45.1885C45.1885 152.021 45.0532 151.526 44.7825 151.246C44.5118 150.957 44.1292 150.812 43.6345 150.812ZM51.0415 157.056C50.8828 157.112 50.7148 157.145 50.5375 157.154C50.3695 157.163 50.2155 157.168 50.0755 157.168C49.2261 157.168 48.5728 156.869 48.1155 156.272C47.6581 155.675 47.4295 154.751 47.4295 153.5C47.4295 152.305 47.6815 151.405 48.1855 150.798C48.6895 150.191 49.4175 149.888 50.3695 149.888C50.6308 149.888 50.8548 149.907 51.0415 149.944V147.2H52.1055V149.958C52.2735 149.93 52.4228 149.911 52.5535 149.902C52.6841 149.893 52.8101 149.888 52.9315 149.888C53.8555 149.888 54.5508 150.159 55.0175 150.7C55.4841 151.232 55.7175 152.119 55.7175 153.36C55.7175 153.948 55.6521 154.48 55.5215 154.956C55.4001 155.423 55.2181 155.819 54.9755 156.146C54.7328 156.473 54.4341 156.725 54.0795 156.902C53.7341 157.079 53.3328 157.168 52.8755 157.168C52.7915 157.168 52.6655 157.159 52.4975 157.14C52.3388 157.131 52.2081 157.107 52.1055 157.07V159.8H51.0415V157.056ZM52.7215 150.812C52.6095 150.812 52.5068 150.817 52.4135 150.826C52.3295 150.826 52.2221 150.845 52.0915 150.882V156.202C52.1848 156.221 52.2875 156.235 52.3995 156.244C52.5208 156.244 52.6515 156.244 52.7915 156.244C53.3888 156.244 53.8368 155.997 54.1355 155.502C54.4435 155.007 54.5975 154.293 54.5975 153.36C54.5975 152.567 54.4575 151.946 54.1775 151.498C53.9068 151.041 53.4215 150.812 52.7215 150.812ZM50.3555 156.244C50.4675 156.244 50.5795 156.239 50.6915 156.23C50.8035 156.221 50.9248 156.202 51.0555 156.174V150.868C50.9435 150.849 50.8361 150.835 50.7335 150.826C50.6401 150.817 50.5235 150.812 50.3835 150.812C49.8048 150.812 49.3521 151.031 49.0255 151.47C48.7081 151.899 48.5495 152.576 48.5495 153.5C48.5495 153.892 48.5821 154.256 48.6475 154.592C48.7221 154.928 48.8341 155.222 48.9835 155.474C49.1328 155.717 49.3195 155.908 49.5435 156.048C49.7768 156.179 50.0475 156.244 50.3555 156.244ZM61.6404 150.98H59.4564V157H58.3364V150.98H56.1524V150H61.6404V150.98ZM66.2388 154.102L65.1608 154.27L63.3128 157H61.9548L63.6348 154.606L64.1948 154.088C63.7095 154.013 63.2941 153.817 62.9488 153.5C62.6128 153.183 62.4448 152.753 62.4448 152.212C62.4448 151.792 62.5148 151.433 62.6548 151.134C62.8041 150.835 63.0141 150.588 63.2848 150.392C63.5555 150.196 63.8775 150.056 64.2508 149.972C64.6241 149.879 65.0441 149.832 65.5108 149.832C65.8561 149.832 66.1781 149.855 66.4768 149.902C66.7755 149.949 67.0695 150 67.3588 150.056V157H66.2388V154.102ZM66.2388 150.952C66.1175 150.905 65.9821 150.873 65.8328 150.854C65.6835 150.826 65.5528 150.812 65.4408 150.812C64.8435 150.812 64.3861 150.919 64.0688 151.134C63.7608 151.349 63.6068 151.689 63.6068 152.156C63.6068 152.576 63.7701 152.903 64.0968 153.136C64.4328 153.36 64.8715 153.472 65.4128 153.472C65.4221 153.472 65.4361 153.472 65.4548 153.472C65.4735 153.472 65.5108 153.472 65.5668 153.472C65.6228 153.472 65.7021 153.472 65.8048 153.472C65.9075 153.463 66.0521 153.453 66.2388 153.444V150.952ZM73.6813 153.906H70.5173V157H69.3973V150H70.5173V152.926H73.6813V150H74.8013V157H73.6813V153.906ZM76.8459 150.518C77.2005 150.303 77.6112 150.145 78.0779 150.042C78.5539 149.939 79.0485 149.888 79.5619 149.888C80.0472 149.888 80.4345 149.953 80.7239 150.084C81.0225 150.215 81.2465 150.387 81.3959 150.602C81.5545 150.807 81.6572 151.036 81.7039 151.288C81.7599 151.54 81.7879 151.792 81.7879 152.044C81.7879 152.604 81.7739 153.15 81.7459 153.682C81.7179 154.214 81.7039 154.718 81.7039 155.194C81.7039 155.539 81.7179 155.866 81.7459 156.174C81.7739 156.482 81.8252 156.767 81.8999 157.028H81.0739L80.7799 156.048H80.7099C80.6259 156.179 80.5185 156.309 80.3879 156.44C80.2665 156.561 80.1172 156.673 79.9399 156.776C79.7625 156.869 79.5572 156.949 79.3239 157.014C79.0905 157.079 78.8245 157.112 78.5259 157.112C78.2272 157.112 77.9472 157.065 77.6859 156.972C77.4339 156.879 77.2145 156.748 77.0279 156.58C76.8412 156.403 76.6919 156.193 76.5799 155.95C76.4772 155.707 76.4259 155.432 76.4259 155.124C76.4259 154.713 76.5099 154.373 76.6779 154.102C76.8459 153.822 77.0792 153.603 77.3779 153.444C77.6859 153.276 78.0499 153.159 78.4699 153.094C78.8992 153.019 79.3705 152.982 79.8839 152.982C80.0145 152.982 80.1405 152.982 80.2619 152.982C80.3925 152.982 80.5232 152.991 80.6539 153.01C80.6819 152.73 80.6959 152.478 80.6959 152.254C80.6959 151.741 80.5932 151.381 80.3879 151.176C80.1825 150.971 79.8092 150.868 79.2679 150.868C79.1092 150.868 78.9365 150.882 78.7499 150.91C78.5725 150.929 78.3859 150.961 78.1899 151.008C78.0032 151.045 77.8212 151.097 77.6439 151.162C77.4759 151.218 77.3265 151.283 77.1959 151.358L76.8459 150.518ZM78.8339 156.132C79.0952 156.132 79.3285 156.099 79.5339 156.034C79.7392 155.959 79.9165 155.871 80.0659 155.768C80.2152 155.656 80.3365 155.535 80.4299 155.404C80.5325 155.273 80.6072 155.147 80.6539 155.026V153.864C80.5232 153.855 80.3879 153.85 80.2479 153.85C80.1172 153.841 79.9865 153.836 79.8559 153.836C79.5665 153.836 79.2819 153.855 79.0019 153.892C78.7312 153.92 78.4885 153.981 78.2739 154.074C78.0685 154.158 77.9005 154.279 77.7699 154.438C77.6485 154.587 77.5879 154.779 77.5879 155.012C77.5879 155.339 77.7045 155.609 77.9379 155.824C78.1712 156.029 78.4699 156.132 78.8339 156.132ZM87.3892 154.102L86.3112 154.27L84.4632 157H83.1052L84.7852 154.606L85.3452 154.088C84.8599 154.013 84.4445 153.817 84.0992 153.5C83.7632 153.183 83.5952 152.753 83.5952 152.212C83.5952 151.792 83.6652 151.433 83.8052 151.134C83.9545 150.835 84.1645 150.588 84.4352 150.392C84.7059 150.196 85.0279 150.056 85.4012 149.972C85.7745 149.879 86.1945 149.832 86.6612 149.832C87.0065 149.832 87.3285 149.855 87.6272 149.902C87.9259 149.949 88.2199 150 88.5092 150.056V157H87.3892V154.102ZM87.3892 150.952C87.2679 150.905 87.1325 150.873 86.9832 150.854C86.8339 150.826 86.7032 150.812 86.5912 150.812C85.9939 150.812 85.5365 150.919 85.2192 151.134C84.9112 151.349 84.7572 151.689 84.7572 152.156C84.7572 152.576 84.9205 152.903 85.2472 153.136C85.5832 153.36 86.0219 153.472 86.5632 153.472C86.5725 153.472 86.5865 153.472 86.6052 153.472C86.6239 153.472 86.6612 153.472 86.7172 153.472C86.7732 153.472 86.8525 153.472 86.9552 153.472C87.0579 153.463 87.2025 153.453 87.3892 153.444V150.952ZM96.0441 153.85H95.4001V157H94.2801V150H95.4001V153.164L96.0021 152.968L98.2421 150H99.4601L97.2901 152.814L96.7021 153.276L97.4301 153.836L99.7681 157H98.3821L96.0441 153.85ZM100.423 153.5C100.423 152.315 100.685 151.409 101.207 150.784C101.739 150.149 102.5 149.832 103.489 149.832C104.012 149.832 104.465 149.921 104.847 150.098C105.239 150.266 105.561 150.513 105.813 150.84C106.065 151.157 106.252 151.545 106.373 152.002C106.495 152.45 106.555 152.949 106.555 153.5C106.555 154.685 106.289 155.595 105.757 156.23C105.235 156.855 104.479 157.168 103.489 157.168C102.967 157.168 102.509 157.084 102.117 156.916C101.735 156.739 101.417 156.491 101.165 156.174C100.913 155.847 100.727 155.46 100.605 155.012C100.484 154.555 100.423 154.051 100.423 153.5ZM101.585 153.5C101.585 153.855 101.618 154.195 101.683 154.522C101.758 154.849 101.87 155.133 102.019 155.376C102.169 155.619 102.365 155.815 102.607 155.964C102.85 156.113 103.144 156.188 103.489 156.188C104.759 156.197 105.393 155.301 105.393 153.5C105.393 153.136 105.356 152.791 105.281 152.464C105.216 152.137 105.109 151.853 104.959 151.61C104.81 151.367 104.614 151.176 104.371 151.036C104.129 150.887 103.835 150.812 103.489 150.812C102.22 150.803 101.585 151.699 101.585 153.5ZM114.103 152.842L114.187 151.512H114.117L113.613 152.59L111.919 155.334H111.527L109.763 152.59L109.301 151.512H109.245L109.357 152.828V157H108.321V150H109.427L111.387 153.136L111.793 153.948H111.821L112.241 153.108L114.075 150H115.195V157H114.103V152.842ZM121.559 150.98H118.465V157H117.345V150H122.679V157H121.559V150.98ZM124.725 150.518C125.079 150.303 125.49 150.145 125.957 150.042C126.433 149.939 126.927 149.888 127.441 149.888C127.926 149.888 128.313 149.953 128.603 150.084C128.901 150.215 129.125 150.387 129.275 150.602C129.433 150.807 129.536 151.036 129.583 151.288C129.639 151.54 129.667 151.792 129.667 152.044C129.667 152.604 129.653 153.15 129.625 153.682C129.597 154.214 129.583 154.718 129.583 155.194C129.583 155.539 129.597 155.866 129.625 156.174C129.653 156.482 129.704 156.767 129.779 157.028H128.953L128.659 156.048H128.589C128.505 156.179 128.397 156.309 128.267 156.44C128.145 156.561 127.996 156.673 127.819 156.776C127.641 156.869 127.436 156.949 127.203 157.014C126.969 157.079 126.703 157.112 126.405 157.112C126.106 157.112 125.826 157.065 125.565 156.972C125.313 156.879 125.093 156.748 124.907 156.58C124.72 156.403 124.571 156.193 124.459 155.95C124.356 155.707 124.305 155.432 124.305 155.124C124.305 154.713 124.389 154.373 124.557 154.102C124.725 153.822 124.958 153.603 125.257 153.444C125.565 153.276 125.929 153.159 126.349 153.094C126.778 153.019 127.249 152.982 127.763 152.982C127.893 152.982 128.019 152.982 128.141 152.982C128.271 152.982 128.402 152.991 128.533 153.01C128.561 152.73 128.575 152.478 128.575 152.254C128.575 151.741 128.472 151.381 128.267 151.176C128.061 150.971 127.688 150.868 127.147 150.868C126.988 150.868 126.815 150.882 126.629 150.91C126.451 150.929 126.265 150.961 126.069 151.008C125.882 151.045 125.7 151.097 125.523 151.162C125.355 151.218 125.205 151.283 125.075 151.358L124.725 150.518ZM126.713 156.132C126.974 156.132 127.207 156.099 127.413 156.034C127.618 155.959 127.795 155.871 127.945 155.768C128.094 155.656 128.215 155.535 128.309 155.404C128.411 155.273 128.486 155.147 128.533 155.026V153.864C128.402 153.855 128.267 153.85 128.127 153.85C127.996 153.841 127.865 153.836 127.735 153.836C127.445 153.836 127.161 153.855 126.881 153.892C126.61 153.92 126.367 153.981 126.153 154.074C125.947 154.158 125.779 154.279 125.649 154.438C125.527 154.587 125.467 154.779 125.467 155.012C125.467 155.339 125.583 155.609 125.817 155.824C126.05 156.029 126.349 156.132 126.713 156.132ZM136.066 153.906H132.902V157H131.782V150H132.902V152.926H136.066V150H137.186V157H136.066V153.906ZM143.711 152.856L143.753 151.988H143.711L143.137 152.884L139.987 157H139.343V150H140.463V154.27L140.421 155.096H140.477L141.023 154.228L144.173 150H144.831V157H143.711V152.856ZM150.471 154.102L149.393 154.27L147.545 157H146.187L147.867 154.606L148.427 154.088C147.942 154.013 147.527 153.817 147.181 153.5C146.845 153.183 146.677 152.753 146.677 152.212C146.677 151.792 146.747 151.433 146.887 151.134C147.037 150.835 147.247 150.588 147.517 150.392C147.788 150.196 148.11 150.056 148.483 149.972C148.857 149.879 149.277 149.832 149.743 149.832C150.089 149.832 150.411 149.855 150.709 149.902C151.008 149.949 151.302 150 151.591 150.056V157H150.471V154.102ZM150.471 150.952C150.35 150.905 150.215 150.873 150.065 150.854C149.916 150.826 149.785 150.812 149.673 150.812C149.076 150.812 148.619 150.919 148.301 151.134C147.993 151.349 147.839 151.689 147.839 152.156C147.839 152.576 148.003 152.903 148.329 153.136C148.665 153.36 149.104 153.472 149.645 153.472C149.655 153.472 149.669 153.472 149.687 153.472C149.706 153.472 149.743 153.472 149.799 153.472C149.855 153.472 149.935 153.472 150.037 153.472C150.14 153.463 150.285 153.453 150.471 153.444V150.952Z" fill="#6B6B6C"/>
</svg>
