<svg width="184" height="182" viewBox="0 0 184 182" fill="none" xmlns="http://www.w3.org/2000/svg">
<path fill-rule="evenodd" clip-rule="evenodd" d="M71.9266 87.7814C73.4929 87.7814 74.7638 89.2079 74.7638 90.9654C74.7638 92.7229 73.4929 94.1495 71.9266 94.1495C70.3603 94.1495 69.0894 92.7229 69.0894 90.9654C69.0894 89.2079 70.3603 87.7814 71.9266 87.7814ZM71.9266 85.3556C75.0472 85.3556 77.5779 87.8678 77.5779 90.9655C77.5779 94.0631 75.0472 96.5753 71.9266 96.5753C68.806 96.5753 66.2753 94.0631 66.2753 90.9655C66.2753 87.8678 68.806 85.3556 71.9266 85.3556ZM85.1431 87.7814C86.1115 87.7814 87.0225 88.2151 87.5345 89.0469L89.3909 87.2664C88.355 86.0953 86.836 85.3556 85.1431 85.3556C82.0225 85.3556 79.4918 87.8678 79.4918 90.9655C79.4918 94.0631 82.0225 96.5753 85.1431 96.5753C86.8752 96.5753 88.4253 95.8008 89.462 94.5822L87.533 92.9306C87.018 93.7359 86.0932 94.1495 85.1431 94.1495C83.5768 94.1495 82.3059 92.7229 82.3059 90.9654C82.3059 89.2079 83.5768 87.7814 85.1431 87.7814ZM103.823 91.7017H111.941C111.971 91.4607 111.987 91.215 111.987 90.9655C111.987 87.8678 109.546 85.3556 106.536 85.3556C103.527 85.3556 101.086 87.8678 101.086 90.9655C101.086 94.0631 103.527 96.5753 106.536 96.5753C108.253 96.5753 110.227 96.284 111.226 95.0072L109.985 93.211C109.362 94.1061 107.715 94.3553 106.664 94.3553C105.275 94.3553 104.112 93.2192 103.823 91.7017H103.823ZM103.885 89.9577C104.254 88.5782 105.359 87.5755 106.664 87.5755C107.969 87.5755 109.075 88.5782 109.443 89.9577H103.885ZM91.1011 85.6119H99.8369V88.0189H96.8177V96.3189H94.1202V88.0189H91.1011V85.6119ZM116.452 90.7991L112.775 85.6119H116.024L118.224 88.9263L120.425 85.6119H123.674L119.997 90.7991L123.84 96.3189H120.701L118.224 92.7351L115.748 96.3189H112.609L116.452 90.7991ZM118.224 89.4279L118.212 89.449L118.224 89.4493L118.237 89.449L118.224 89.4279ZM59.7132 84.2056C60.8848 84.2056 61.8349 85.1556 61.8349 86.3272C61.8349 87.4988 60.8848 88.4489 59.7132 88.4489H56.1371V84.2056H59.7132ZM53.1741 81.686H60.3231C62.886 81.686 64.9644 83.7644 64.9644 86.3272C64.9644 88.8901 62.886 90.9685 60.3231 90.9685H56.1371V96.3189H53.1741V81.686Z" fill="black"/>
<path fill-rule="evenodd" clip-rule="evenodd" d="M62.0468 9.04678H85.7012L76.6544 0H53V23.6544L62.0468 32.7012V9.04678ZM90.5853 9.04678H114.24V32.7012L123.287 23.6544V0H99.6321L90.5853 9.04678ZM114.24 37.5853V61.2397H90.5853L99.6321 70.2865H123.287V46.6321L114.24 37.5853ZM85.7012 61.2397H62.0468V37.5853L53 46.6321V70.2865H76.6544L85.7012 61.2397Z" fill="black"/>
<path d="M125.811 0.382568H128.074V0.87052H127.187V3.58042H126.699V0.87052H125.811V0.382568ZM130.107 2.76332L131.167 0.382763H131.71V3.58035H131.222V1.47928L130.284 3.58035H129.93L128.992 1.47928V3.58035H128.504V0.382763H129.047L130.107 2.76332Z" fill="black"/>
<path d="M65.808 136.02C67.008 136.02 67.9546 136.147 68.648 136.4C69.3546 136.653 69.8546 137.107 70.148 137.76C70.4413 138.4 70.588 139.293 70.588 140.44C70.588 141.6 70.4413 142.5 70.148 143.14C69.868 143.78 69.3946 144.227 68.728 144.48C68.0746 144.733 67.2013 144.86 66.108 144.86C65.6013 144.86 65.1013 144.847 64.608 144.82C64.1146 144.78 63.6546 144.74 63.228 144.7V150H60.728V136.2C61.2613 136.147 61.7613 136.107 62.228 136.08C62.6946 136.053 63.208 136.04 63.768 136.04C64.328 136.027 65.008 136.02 65.808 136.02ZM65.748 137.98C65.2813 137.98 64.8346 137.98 64.408 137.98C63.9813 137.98 63.588 137.987 63.228 138V142.9H65.748C66.3346 142.9 66.7946 142.833 67.128 142.7C67.4746 142.553 67.7146 142.307 67.848 141.96C67.9946 141.6 68.068 141.093 68.068 140.44C68.068 139.787 67.9946 139.287 67.848 138.94C67.7146 138.58 67.4746 138.333 67.128 138.2C66.7946 138.053 66.3346 137.98 65.748 137.98ZM77.0978 139.94C78.2845 139.94 79.2311 140.107 79.9378 140.44C80.6578 140.773 81.1711 141.32 81.4778 142.08C81.7978 142.84 81.9578 143.847 81.9578 145.1C81.9578 146.353 81.7978 147.36 81.4778 148.12C81.1711 148.88 80.6578 149.427 79.9378 149.76C79.2311 150.093 78.2845 150.26 77.0978 150.26C75.8978 150.26 74.9378 150.093 74.2178 149.76C73.5111 149.427 72.9978 148.88 72.6778 148.12C72.3578 147.36 72.1978 146.353 72.1978 145.1C72.1978 143.847 72.3578 142.84 72.6778 142.08C72.9978 141.32 73.5111 140.773 74.2178 140.44C74.9378 140.107 75.8978 139.94 77.0978 139.94ZM77.0978 141.78C76.4978 141.78 76.0245 141.88 75.6778 142.08C75.3311 142.267 75.0845 142.6 74.9378 143.08C74.8045 143.56 74.7378 144.233 74.7378 145.1C74.7378 145.967 74.8045 146.64 74.9378 147.12C75.0845 147.6 75.3311 147.933 75.6778 148.12C76.0245 148.307 76.4978 148.4 77.0978 148.4C77.6845 148.4 78.1445 148.307 78.4778 148.12C78.8245 147.933 79.0645 147.6 79.1978 147.12C79.3445 146.64 79.4178 145.967 79.4178 145.1C79.4178 144.233 79.3445 143.56 79.1978 143.08C79.0645 142.6 78.8245 142.267 78.4778 142.08C78.1445 141.88 77.6845 141.78 77.0978 141.78ZM88.698 139.94C89.1913 139.94 89.758 139.98 90.398 140.06C91.038 140.127 91.618 140.267 92.138 140.48L91.858 142C91.3646 141.973 90.8713 141.953 90.378 141.94C89.898 141.927 89.4713 141.92 89.098 141.92C88.4313 141.92 87.898 142.013 87.498 142.2C87.1113 142.387 86.8313 142.707 86.658 143.16C86.4846 143.613 86.398 144.253 86.398 145.08C86.398 145.907 86.4846 146.553 86.658 147.02C86.8313 147.473 87.1113 147.793 87.498 147.98C87.898 148.167 88.4313 148.26 89.098 148.26C89.418 148.26 89.858 148.247 90.418 148.22C90.9913 148.193 91.5446 148.147 92.078 148.08L92.298 149.64C91.7913 149.853 91.218 150.007 90.578 150.1C89.9513 150.193 89.318 150.24 88.678 150.24C87.5046 150.24 86.5646 150.073 85.858 149.74C85.1513 149.407 84.638 148.867 84.318 148.12C84.0113 147.36 83.858 146.347 83.858 145.08C83.858 143.813 84.018 142.807 84.338 142.06C84.658 141.3 85.1713 140.76 85.878 140.44C86.5846 140.107 87.5246 139.94 88.698 139.94ZM102.597 140.18V142.08H99.217V150H96.797V142.08H93.397V140.18H102.597ZM108.678 139.94C110.265 139.94 111.405 140.22 112.098 140.78C112.791 141.327 113.145 142.14 113.158 143.22C113.158 144.113 112.945 144.793 112.518 145.26C112.105 145.713 111.398 145.94 110.398 145.94H106.418C106.511 146.887 106.765 147.513 107.178 147.82C107.591 148.127 108.231 148.28 109.098 148.28C109.591 148.28 110.158 148.26 110.798 148.22C111.451 148.18 112.078 148.127 112.678 148.06L112.918 149.6C112.558 149.747 112.145 149.873 111.678 149.98C111.211 150.073 110.725 150.14 110.218 150.18C109.711 150.22 109.238 150.24 108.798 150.24C107.011 150.24 105.738 149.84 104.978 149.04C104.231 148.227 103.858 146.913 103.858 145.1C103.858 143.807 104.018 142.787 104.338 142.04C104.671 141.28 105.191 140.74 105.898 140.42C106.605 140.1 107.531 139.94 108.678 139.94ZM108.758 141.74C108.185 141.74 107.725 141.813 107.378 141.96C107.045 142.107 106.798 142.38 106.638 142.78C106.491 143.167 106.411 143.72 106.398 144.44H109.738C110.178 144.44 110.458 144.32 110.578 144.08C110.711 143.84 110.778 143.547 110.778 143.2C110.778 142.667 110.625 142.293 110.318 142.08C110.011 141.853 109.491 141.74 108.758 141.74ZM116.857 140.18L119.157 144.1H119.457L121.777 140.18H124.277L121.357 144.96L124.497 150H121.977L119.417 145.72H119.197L116.617 150H114.097L117.257 144.96L114.357 140.18H116.857Z" fill="#363738"/>
<path d="M12.5908 170.236H8.0688V179H6.9068V169.2H13.7528V179H12.5908V170.236ZM16.0233 172H16.7933L17.0033 172.84H17.0593C17.274 172.513 17.5493 172.266 17.8853 172.098C18.2306 171.921 18.6226 171.832 19.0613 171.832C19.9946 171.832 20.69 172.107 21.1473 172.658C21.6046 173.209 21.8333 174.109 21.8333 175.36C21.8333 175.948 21.754 176.48 21.5953 176.956C21.446 177.423 21.2313 177.819 20.9513 178.146C20.6713 178.473 20.3306 178.725 19.9293 178.902C19.5373 179.079 19.0986 179.168 18.6133 179.168C18.268 179.168 17.9926 179.145 17.7873 179.098C17.5913 179.061 17.3766 178.991 17.1433 178.888V181.8H16.0233V172ZM18.8513 172.812C18.3753 172.812 17.9973 172.938 17.7173 173.19C17.4466 173.433 17.2553 173.806 17.1433 174.31V177.782C17.3113 177.913 17.5026 178.015 17.7173 178.09C17.932 178.155 18.2166 178.188 18.5713 178.188C19.2153 178.188 19.724 177.95 20.0973 177.474C20.48 176.989 20.6713 176.279 20.6713 175.346C20.6713 174.963 20.6386 174.618 20.5733 174.31C20.508 173.993 20.4006 173.727 20.2513 173.512C20.1113 173.288 19.9246 173.115 19.6913 172.994C19.4673 172.873 19.1873 172.812 18.8513 172.812ZM23.2055 175.5C23.2055 174.315 23.4669 173.409 23.9895 172.784C24.5215 172.149 25.2822 171.832 26.2715 171.832C26.7942 171.832 27.2469 171.921 27.6295 172.098C28.0215 172.266 28.3435 172.513 28.5955 172.84C28.8475 173.157 29.0342 173.545 29.1555 174.002C29.2769 174.45 29.3375 174.949 29.3375 175.5C29.3375 176.685 29.0715 177.595 28.5395 178.23C28.0169 178.855 27.2609 179.168 26.2715 179.168C25.7489 179.168 25.2915 179.084 24.8995 178.916C24.5169 178.739 24.1995 178.491 23.9475 178.174C23.6955 177.847 23.5089 177.46 23.3875 177.012C23.2662 176.555 23.2055 176.051 23.2055 175.5ZM24.3675 175.5C24.3675 175.855 24.4002 176.195 24.4655 176.522C24.5402 176.849 24.6522 177.133 24.8015 177.376C24.9509 177.619 25.1469 177.815 25.3895 177.964C25.6322 178.113 25.9262 178.188 26.2715 178.188C27.5409 178.197 28.1755 177.301 28.1755 175.5C28.1755 175.136 28.1382 174.791 28.0635 174.464C27.9982 174.137 27.8909 173.853 27.7415 173.61C27.5922 173.367 27.3962 173.176 27.1535 173.036C26.9109 172.887 26.6169 172.812 26.2715 172.812C25.0022 172.803 24.3675 173.699 24.3675 175.5ZM36.8854 174.842L36.9694 173.512H36.8994L36.3954 174.59L34.7014 177.334H34.3094L32.5454 174.59L32.0834 173.512H32.0274L32.1394 174.828V179H31.1034V172H32.2094L34.1694 175.136L34.5754 175.948H34.6034L35.0234 175.108L36.8574 172H37.9774V179H36.8854V174.842ZM41.2468 178.02C41.5922 178.076 41.9235 178.104 42.2408 178.104C42.8288 178.104 43.2395 177.992 43.4728 177.768C43.7062 177.535 43.8228 177.208 43.8228 176.788C43.8228 176.415 43.7062 176.107 43.4728 175.864C43.2488 175.621 42.8522 175.5 42.2828 175.5C42.1242 175.5 41.9515 175.505 41.7648 175.514C41.5782 175.523 41.4055 175.551 41.2468 175.598V178.02ZM41.2468 174.674C41.4708 174.637 41.6855 174.613 41.8908 174.604C42.0962 174.585 42.2922 174.576 42.4788 174.576C42.9548 174.576 43.3515 174.632 43.6688 174.744C43.9955 174.847 44.2568 174.991 44.4528 175.178C44.6488 175.365 44.7842 175.589 44.8588 175.85C44.9428 176.102 44.9848 176.373 44.9848 176.662C44.9848 177.511 44.7468 178.127 44.2708 178.51C43.8042 178.893 43.0435 179.084 41.9888 179.084C41.3915 179.084 40.7708 179.056 40.1268 179V172H41.2468V174.674ZM46.0908 172H47.2108V179H46.0908V172ZM49.369 179V172H50.489V178.02H52.883V172H54.003V178.02H56.397V172H57.517V179H49.369ZM63.4436 172.98H61.4136C61.3856 173.372 61.3576 173.797 61.3296 174.254C61.3016 174.702 61.2596 175.155 61.2036 175.612C61.1476 176.06 61.0729 176.494 60.9796 176.914C60.8863 177.325 60.7649 177.689 60.6156 178.006C60.4756 178.323 60.2983 178.58 60.0836 178.776C59.8783 178.963 59.6309 179.056 59.3416 179.056C59.1643 179.056 59.0103 179.047 58.8796 179.028C58.7489 179.009 58.6323 178.977 58.5296 178.93L58.6976 177.992C58.8096 178.029 58.9309 178.048 59.0616 178.048C59.2483 178.048 59.4163 177.969 59.5656 177.81C59.7149 177.651 59.8456 177.353 59.9576 176.914C60.0696 176.466 60.1629 175.85 60.2376 175.066C60.3123 174.282 60.3636 173.26 60.3916 172H64.5636V179H63.4436V172.98ZM71.8286 178.44C71.5486 178.664 71.194 178.841 70.7646 178.972C70.3446 179.103 69.8966 179.168 69.4206 179.168C68.8886 179.168 68.4266 179.084 68.0346 178.916C67.6426 178.739 67.3206 178.491 67.0686 178.174C66.8166 177.847 66.63 177.46 66.5086 177.012C66.3873 176.564 66.3266 176.06 66.3266 175.5C66.3266 174.305 66.5926 173.395 67.1246 172.77C67.6566 172.145 68.4173 171.832 69.4066 171.832C69.724 171.832 70.0413 171.869 70.3586 171.944C70.676 172.009 70.9606 172.14 71.2126 172.336C71.4646 172.532 71.67 172.812 71.8286 173.176C71.9873 173.531 72.0666 174.002 72.0666 174.59C72.0666 174.898 72.0386 175.239 71.9826 175.612H67.4886C67.4886 176.023 67.5306 176.387 67.6146 176.704C67.6986 177.021 67.8293 177.292 68.0066 177.516C68.184 177.731 68.4126 177.899 68.6926 178.02C68.982 178.132 69.332 178.188 69.7426 178.188C70.06 178.188 70.3773 178.132 70.6946 178.02C71.012 177.908 71.25 177.777 71.4086 177.628L71.8286 178.44ZM69.4206 172.812C68.87 172.812 68.4266 172.957 68.0906 173.246C67.764 173.535 67.568 174.03 67.5026 174.73H70.9746C70.9746 174.021 70.8393 173.526 70.5686 173.246C70.298 172.957 69.9153 172.812 69.4206 172.812ZM78.112 175.906H74.948V179H73.828V172H74.948V174.926H78.112V172H79.232V179H78.112V175.906ZM85.6725 175.906H82.5085V179H81.3885V172H82.5085V174.926H85.6725V172H86.7925V179H85.6725V175.906ZM88.8371 172.518C89.1918 172.303 89.6024 172.145 90.0691 172.042C90.5451 171.939 91.0398 171.888 91.5531 171.888C92.0384 171.888 92.4258 171.953 92.7151 172.084C93.0138 172.215 93.2378 172.387 93.3871 172.602C93.5458 172.807 93.6484 173.036 93.6951 173.288C93.7511 173.54 93.7791 173.792 93.7791 174.044C93.7791 174.604 93.7651 175.15 93.7371 175.682C93.7091 176.214 93.6951 176.718 93.6951 177.194C93.6951 177.539 93.7091 177.866 93.7371 178.174C93.7651 178.482 93.8164 178.767 93.8911 179.028H93.0651L92.7711 178.048H92.7011C92.6171 178.179 92.5098 178.309 92.3791 178.44C92.2578 178.561 92.1084 178.673 91.9311 178.776C91.7538 178.869 91.5484 178.949 91.3151 179.014C91.0818 179.079 90.8158 179.112 90.5171 179.112C90.2184 179.112 89.9384 179.065 89.6771 178.972C89.4251 178.879 89.2058 178.748 89.0191 178.58C88.8324 178.403 88.6831 178.193 88.5711 177.95C88.4684 177.707 88.4171 177.432 88.4171 177.124C88.4171 176.713 88.5011 176.373 88.6691 176.102C88.8371 175.822 89.0704 175.603 89.3691 175.444C89.6771 175.276 90.0411 175.159 90.4611 175.094C90.8904 175.019 91.3618 174.982 91.8751 174.982C92.0058 174.982 92.1318 174.982 92.2531 174.982C92.3838 174.982 92.5144 174.991 92.6451 175.01C92.6731 174.73 92.6871 174.478 92.6871 174.254C92.6871 173.741 92.5844 173.381 92.3791 173.176C92.1738 172.971 91.8004 172.868 91.2591 172.868C91.1004 172.868 90.9278 172.882 90.7411 172.91C90.5638 172.929 90.3771 172.961 90.1811 173.008C89.9944 173.045 89.8124 173.097 89.6351 173.162C89.4671 173.218 89.3178 173.283 89.1871 173.358L88.8371 172.518ZM90.8251 178.132C91.0864 178.132 91.3198 178.099 91.5251 178.034C91.7304 177.959 91.9078 177.871 92.0571 177.768C92.2064 177.656 92.3278 177.535 92.4211 177.404C92.5238 177.273 92.5984 177.147 92.6451 177.026V175.864C92.5144 175.855 92.3791 175.85 92.2391 175.85C92.1084 175.841 91.9778 175.836 91.8471 175.836C91.5578 175.836 91.2731 175.855 90.9931 175.892C90.7224 175.92 90.4798 175.981 90.2651 176.074C90.0598 176.158 89.8918 176.279 89.7611 176.438C89.6398 176.587 89.5791 176.779 89.5791 177.012C89.5791 177.339 89.6958 177.609 89.9291 177.824C90.1624 178.029 90.4611 178.132 90.8251 178.132ZM99.3804 176.102L98.3024 176.27L96.4544 179H95.0964L96.7764 176.606L97.3364 176.088C96.8511 176.013 96.4357 175.817 96.0904 175.5C95.7544 175.183 95.5864 174.753 95.5864 174.212C95.5864 173.792 95.6564 173.433 95.7964 173.134C95.9457 172.835 96.1557 172.588 96.4264 172.392C96.6971 172.196 97.0191 172.056 97.3924 171.972C97.7657 171.879 98.1857 171.832 98.6524 171.832C98.9977 171.832 99.3197 171.855 99.6184 171.902C99.9171 171.949 100.211 172 100.5 172.056V179H99.3804V176.102ZM99.3804 172.952C99.2591 172.905 99.1237 172.873 98.9744 172.854C98.8251 172.826 98.6944 172.812 98.5824 172.812C97.9851 172.812 97.5277 172.919 97.2104 173.134C96.9024 173.349 96.7484 173.689 96.7484 174.156C96.7484 174.576 96.9117 174.903 97.2384 175.136C97.5744 175.36 98.0131 175.472 98.5544 175.472C98.5637 175.472 98.5777 175.472 98.5964 175.472C98.6151 175.472 98.6524 175.472 98.7084 175.472C98.7644 175.472 98.8437 175.472 98.9464 175.472C99.0491 175.463 99.1937 175.453 99.3804 175.444V172.952ZM108.035 175.85H107.391V179H106.271V172H107.391V175.164L107.993 174.968L110.233 172H111.451L109.281 174.814L108.693 175.276L109.421 175.836L111.759 179H110.373L108.035 175.85ZM112.415 175.5C112.415 174.315 112.676 173.409 113.199 172.784C113.731 172.149 114.491 171.832 115.481 171.832C116.003 171.832 116.456 171.921 116.839 172.098C117.231 172.266 117.553 172.513 117.805 172.84C118.057 173.157 118.243 173.545 118.365 174.002C118.486 174.45 118.547 174.949 118.547 175.5C118.547 176.685 118.281 177.595 117.749 178.23C117.226 178.855 116.47 179.168 115.481 179.168C114.958 179.168 114.501 179.084 114.109 178.916C113.726 178.739 113.409 178.491 113.157 178.174C112.905 177.847 112.718 177.46 112.597 177.012C112.475 176.555 112.415 176.051 112.415 175.5ZM113.577 175.5C113.577 175.855 113.609 176.195 113.675 176.522C113.749 176.849 113.861 177.133 114.011 177.376C114.16 177.619 114.356 177.815 114.599 177.964C114.841 178.113 115.135 178.188 115.481 178.188C116.75 178.197 117.385 177.301 117.385 175.5C117.385 175.136 117.347 174.791 117.273 174.464C117.207 174.137 117.1 173.853 116.951 173.61C116.801 173.367 116.605 173.176 116.363 173.036C116.12 172.887 115.826 172.812 115.481 172.812C114.211 172.803 113.577 173.699 113.577 175.5ZM120.312 172H121.082L121.292 172.84H121.348C121.563 172.513 121.838 172.266 122.174 172.098C122.52 171.921 122.912 171.832 123.35 171.832C124.284 171.832 124.979 172.107 125.436 172.658C125.894 173.209 126.122 174.109 126.122 175.36C126.122 175.948 126.043 176.48 125.884 176.956C125.735 177.423 125.52 177.819 125.24 178.146C124.96 178.473 124.62 178.725 124.218 178.902C123.826 179.079 123.388 179.168 122.902 179.168C122.557 179.168 122.282 179.145 122.076 179.098C121.88 179.061 121.666 178.991 121.432 178.888V181.8H120.312V172ZM123.14 172.812C122.664 172.812 122.286 172.938 122.006 173.19C121.736 173.433 121.544 173.806 121.432 174.31V177.782C121.6 177.913 121.792 178.015 122.006 178.09C122.221 178.155 122.506 178.188 122.86 178.188C123.504 178.188 124.013 177.95 124.386 177.474C124.769 176.989 124.96 176.279 124.96 175.346C124.96 174.963 124.928 174.618 124.862 174.31C124.797 173.993 124.69 173.727 124.54 173.512C124.4 173.288 124.214 173.115 123.98 172.994C123.756 172.873 123.476 172.812 123.14 172.812ZM132.101 172.98H129.007V179H127.887V172H133.221V179H132.101V172.98ZM134.987 175.5C134.987 174.315 135.248 173.409 135.771 172.784C136.303 172.149 137.063 171.832 138.053 171.832C138.575 171.832 139.028 171.921 139.411 172.098C139.803 172.266 140.125 172.513 140.377 172.84C140.629 173.157 140.815 173.545 140.937 174.002C141.058 174.45 141.119 174.949 141.119 175.5C141.119 176.685 140.853 177.595 140.321 178.23C139.798 178.855 139.042 179.168 138.053 179.168C137.53 179.168 137.073 179.084 136.681 178.916C136.298 178.739 135.981 178.491 135.729 178.174C135.477 177.847 135.29 177.46 135.169 177.012C135.047 176.555 134.987 176.051 134.987 175.5ZM136.149 175.5C136.149 175.855 136.181 176.195 136.247 176.522C136.321 176.849 136.433 177.133 136.583 177.376C136.732 177.619 136.928 177.815 137.171 177.964C137.413 178.113 137.707 178.188 138.053 178.188C139.322 178.197 139.957 177.301 139.957 175.5C139.957 175.136 139.919 174.791 139.845 174.464C139.779 174.137 139.672 173.853 139.523 173.61C139.373 173.367 139.177 173.176 138.935 173.036C138.692 172.887 138.398 172.812 138.053 172.812C136.783 172.803 136.149 173.699 136.149 175.5ZM142.885 172H143.655L143.865 172.84H143.921C144.135 172.513 144.411 172.266 144.747 172.098C145.092 171.921 145.484 171.832 145.923 171.832C146.856 171.832 147.551 172.107 148.009 172.658C148.466 173.209 148.695 174.109 148.695 175.36C148.695 175.948 148.615 176.48 148.457 176.956C148.307 177.423 148.093 177.819 147.813 178.146C147.533 178.473 147.192 178.725 146.791 178.902C146.399 179.079 145.96 179.168 145.475 179.168C145.129 179.168 144.854 179.145 144.649 179.098C144.453 179.061 144.238 178.991 144.005 178.888V181.8H142.885V172ZM145.713 172.812C145.237 172.812 144.859 172.938 144.579 173.19C144.308 173.433 144.117 173.806 144.005 174.31V177.782C144.173 177.913 144.364 178.015 144.579 178.09C144.793 178.155 145.078 178.188 145.433 178.188C146.077 178.188 146.585 177.95 146.959 177.474C147.341 176.989 147.533 176.279 147.533 175.346C147.533 174.963 147.5 174.618 147.435 174.31C147.369 173.993 147.262 173.727 147.113 173.512C146.973 173.288 146.786 173.115 146.553 172.994C146.329 172.873 146.049 172.812 145.713 172.812ZM150.347 172.518C150.702 172.303 151.112 172.145 151.579 172.042C152.055 171.939 152.55 171.888 153.063 171.888C153.548 171.888 153.936 171.953 154.225 172.084C154.524 172.215 154.748 172.387 154.897 172.602C155.056 172.807 155.158 173.036 155.205 173.288C155.261 173.54 155.289 173.792 155.289 174.044C155.289 174.604 155.275 175.15 155.247 175.682C155.219 176.214 155.205 176.718 155.205 177.194C155.205 177.539 155.219 177.866 155.247 178.174C155.275 178.482 155.326 178.767 155.401 179.028H154.575L154.281 178.048H154.211C154.127 178.179 154.02 178.309 153.889 178.44C153.768 178.561 153.618 178.673 153.441 178.776C153.264 178.869 153.058 178.949 152.825 179.014C152.592 179.079 152.326 179.112 152.027 179.112C151.728 179.112 151.448 179.065 151.187 178.972C150.935 178.879 150.716 178.748 150.529 178.58C150.342 178.403 150.193 178.193 150.081 177.95C149.978 177.707 149.927 177.432 149.927 177.124C149.927 176.713 150.011 176.373 150.179 176.102C150.347 175.822 150.58 175.603 150.879 175.444C151.187 175.276 151.551 175.159 151.971 175.094C152.4 175.019 152.872 174.982 153.385 174.982C153.516 174.982 153.642 174.982 153.763 174.982C153.894 174.982 154.024 174.991 154.155 175.01C154.183 174.73 154.197 174.478 154.197 174.254C154.197 173.741 154.094 173.381 153.889 173.176C153.684 172.971 153.31 172.868 152.769 172.868C152.61 172.868 152.438 172.882 152.251 172.91C152.074 172.929 151.887 172.961 151.691 173.008C151.504 173.045 151.322 173.097 151.145 173.162C150.977 173.218 150.828 173.283 150.697 173.358L150.347 172.518ZM152.335 178.132C152.596 178.132 152.83 178.099 153.035 178.034C153.24 177.959 153.418 177.871 153.567 177.768C153.716 177.656 153.838 177.535 153.931 177.404C154.034 177.273 154.108 177.147 154.155 177.026V175.864C154.024 175.855 153.889 175.85 153.749 175.85C153.618 175.841 153.488 175.836 153.357 175.836C153.068 175.836 152.783 175.855 152.503 175.892C152.232 175.92 151.99 175.981 151.775 176.074C151.57 176.158 151.402 176.279 151.271 176.438C151.15 176.587 151.089 176.779 151.089 177.012C151.089 177.339 151.206 177.609 151.439 177.824C151.672 178.029 151.971 178.132 152.335 178.132ZM163.69 180.778H162.934L162.724 179H157.404V172H158.524V178.02H161.562V172H162.682V178.02H163.69V180.778ZM169.442 174.856L169.484 173.988H169.442L168.868 174.884L165.718 179H165.074V172H166.194V176.27L166.152 177.096H166.208L166.754 176.228L169.904 172H170.562V179H169.442V174.856ZM176.203 176.102L175.125 176.27L173.277 179H171.919L173.599 176.606L174.159 176.088C173.673 176.013 173.258 175.817 172.913 175.5C172.577 175.183 172.409 174.753 172.409 174.212C172.409 173.792 172.479 173.433 172.619 173.134C172.768 172.835 172.978 172.588 173.249 172.392C173.519 172.196 173.841 172.056 174.215 171.972C174.588 171.879 175.008 171.832 175.475 171.832C175.82 171.832 176.142 171.855 176.441 171.902C176.739 171.949 177.033 172 177.323 172.056V179H176.203V176.102ZM176.203 172.952C176.081 172.905 175.946 172.873 175.797 172.854C175.647 172.826 175.517 172.812 175.405 172.812C174.807 172.812 174.35 172.919 174.033 173.134C173.725 173.349 173.571 173.689 173.571 174.156C173.571 174.576 173.734 174.903 174.061 175.136C174.397 175.36 174.835 175.472 175.377 175.472C175.386 175.472 175.4 175.472 175.419 175.472C175.437 175.472 175.475 175.472 175.531 175.472C175.587 175.472 175.666 175.472 175.769 175.472C175.871 175.463 176.016 175.453 176.203 175.444V172.952Z" fill="#6B6B6C"/>
</svg>
